<?xml version="1.0" encoding="UTF-8"?>
<svg id="Layer_2" data-name="Layer 2" xmlns="http://www.w3.org/2000/svg" viewBox="0 0 32 32">
  <defs>
    <style>
      .cls-1 {
        fill: #108a00;
      }

      .cls-1, .cls-2, .cls-3 {
        stroke-width: 0px;
      }

      .cls-2 {
        fill: #031600;
      }

      .cls-3 {
        fill: #fff;
      }
    </style>
  </defs>
  <g id="Layer_1-2" data-name="Layer 1">
    <g>
      <circle class="cls-3" cx="16" cy="16" r="16"/>
      <g>
        <path class="cls-2" d="M23.49,17.18c0-.52,0-.92-.01-1.19,0-.28-.03-.58-.05-.9-.03-.33-.05-.57-.09-.73-.03-.16-.08-.33-.14-.53-.06-.19-.12-.35-.19-.46-.07-.12-.16-.23-.28-.35-.5-.57-1.14-.85-1.91-.85s-1.41.28-1.91.85c-.1.12-.19.23-.26.35-.08.12-.14.27-.2.46-.06.19-.1.37-.14.53-.03.16-.06.4-.09.73-.03.33-.04.63-.05.9,0,.28-.01.67-.01,1.19s0,1,.01,1.44c0,.44.01,1.06.01,1.84v2.21h-3.56c0-.69,0-1.42.01-2.21,0-.79.01-1.4.01-1.84v-1.44c0-.52,0-.92-.01-1.19,0-.28-.03-.58-.05-.9-.03-.33-.05-.57-.09-.73-.03-.16-.08-.33-.13-.53-.05-.19-.11-.35-.19-.46-.08-.12-.17-.23-.29-.35-.5-.57-1.14-.85-1.91-.85s-1.41.28-1.91.85c-.1.12-.19.23-.26.35-.08.12-.14.27-.2.46-.06.19-.1.37-.14.53-.03.16-.06.4-.09.73-.03.33-.04.63-.05.9,0,.28-.01.67-.01,1.19s0,.17.01.61c0,.44.01-.63.01.16s0-.75,0-.06h-3.51c0-.99,0,.87-.01-.1,0-.96-.01.27-.01-.23v-2.61c0-.22,0-.44.03-.67.02-.23.03-.4.05-.51.02-.12.05-.25.1-.4.33-1.49,1.07-2.66,2.21-3.5,1.14-.84,2.4-1.28,3.79-1.29,1.76.02,3.23.63,4.42,1.83,1.19-1.2,2.66-1.82,4.42-1.83,1.41.02,2.67.45,3.8,1.29,1.13.85,1.87,2.01,2.22,3.5.03.15.06.28.08.4.02.12.03.29.05.51.02.23.03.45.03.67v2.61c0,.5,0-.73-.01.23,0,.96-.01-.89-.01.1h-3.51c0-.69,0-1.42.01-2.21"/>
        <circle class="cls-1" cx="7.5" cy="20.99" r="1.76"/>
        <circle class="cls-1" cx="25.21" cy="20.99" r="1.76"/>
      </g>
    </g>
  </g>
</svg>