<?xml version="1.0" encoding="UTF-8"?>
<svg id="Layer_2" data-name="Layer 2" xmlns="http://www.w3.org/2000/svg" viewBox="0 0 486.4 121.39">
  <defs>
    <style>
      .cls-1 {
        fill: #fff;
        stroke-width: 0px;
      }
    </style>
  </defs>
  <g id="Layer_1-2" data-name="Layer 1">
    <g>
      <path class="cls-1" d="M22.01,33.02c12.27,0,22.69,4.32,31.29,12.97,8.59,8.65,12.89,19.05,12.89,31.21v44.19h-22.01v-44.19c0-6.08-2.15-11.27-6.45-15.57-4.3-4.3-9.54-6.45-15.72-6.45v66.2H0V0h22.01v33.02Z"/>
      <path class="cls-1" d="M90.31,45.99c8.59-8.65,19-12.97,31.21-12.97s22.62,4.32,31.21,12.97c8.59,8.65,12.89,19.05,12.89,31.21v44.19h-22.01v-44.19c0-6.08-2.15-11.27-6.45-15.57-4.3-4.3-9.49-6.45-15.57-6.45s-11.3,2.15-15.65,6.45c-4.35,4.3-6.53,9.49-6.53,15.57s2.17,11.3,6.53,15.65c4.35,4.35,9.56,6.53,15.65,6.53,3.88,0,7.55-1,11.01-2.99v23.59c-3.56.94-7.23,1.42-11.01,1.42-12.27,0-22.7-4.32-31.29-12.97-8.6-8.65-12.89-19.05-12.89-31.21s4.3-22.56,12.89-31.21Z"/>
      <path class="cls-1" d="M308.62,63.06c.21.94.37,1.78.47,2.52.1.73.21,1.81.31,3.22.1,1.42.16,2.81.16,4.17v16.35c0,3.14-.03,7.73-.08,13.76-.05,6.03-.08,12.13-.08,18.32h-22.01c0-4.3.02-8.91.08-13.84.05-4.93.08-8.78.08-11.56v-9.04c0-3.25-.03-5.74-.08-7.47-.05-1.73-.16-3.62-.31-5.66-.16-2.04-.34-3.56-.55-4.56-.21-1-.5-2.1-.86-3.3-.37-1.2-.76-2.17-1.18-2.91-.42-.73-1-1.47-1.73-2.2-3.15-3.56-7.13-5.35-11.95-5.35s-8.81,1.78-11.95,5.35c-.63.73-1.18,1.47-1.65,2.2-.47.73-.89,1.71-1.26,2.91-.37,1.21-.66,2.31-.86,3.3-.21,1-.39,2.52-.55,4.56-.16,2.04-.26,3.93-.31,5.66-.05,1.73-.08,4.22-.08,7.47s.02,6.27.08,9.04c.05,2.78.08,6.63.08,11.56v13.84h-22.33c0-4.3.02-8.91.08-13.84.05-4.93.08-8.78.08-11.56v-9.04c0-3.25-.03-5.74-.08-7.47-.05-1.73-.16-3.62-.31-5.66-.16-2.04-.34-3.56-.55-4.56-.21-1-.47-2.1-.79-3.3-.31-1.2-.71-2.17-1.18-2.91-.47-.73-1.08-1.47-1.81-2.2-3.14-3.56-7.13-5.35-11.95-5.35s-8.81,1.78-11.95,5.35c-.63.73-1.18,1.47-1.65,2.2-.47.73-.89,1.71-1.26,2.91-.37,1.21-.66,2.31-.87,3.3-.21,1-.39,2.52-.55,4.56-.16,2.04-.26,3.93-.31,5.66-.05,1.73-.08,4.22-.08,7.47s.02,6.27.08,9.04c.05,2.78.08,6.63.08,11.56v13.84h-22.01c0-6.18-.03-12.29-.08-18.32-.05-6.03-.08-10.61-.08-13.76v-16.35c0-1.36.05-2.75.16-4.17.1-1.42.21-2.49.31-3.22.1-.73.31-1.57.63-2.52,2.1-9.33,6.71-16.64,13.84-21.94,7.13-5.29,15.04-7.99,23.74-8.1,11.01.11,20.23,3.93,27.67,11.48,7.44-7.55,16.67-11.37,27.67-11.48,8.81.11,16.75,2.81,23.82,8.1,7.08,5.29,11.72,12.61,13.92,21.94Z"/>
      <path class="cls-1" d="M396.09,45.99c-8.59-8.65-19-12.97-31.21-12.97s-22.61,4.32-31.21,12.97c-8.6,8.65-12.89,19.05-12.89,31.21v44.19h22.01v-44.19c0-6.08,2.15-11.27,6.45-15.57,4.3-4.3,9.49-6.45,15.57-6.45s11.3,2.15,15.64,6.45c4.35,4.3,6.53,9.49,6.53,15.57s-2.17,11.3-6.53,15.65c-4.35,4.35-9.56,6.53-15.64,6.53-3.88,0-7.55-1-11.01-2.99v23.59c3.56.94,7.23,1.42,11.01,1.42,12.26,0,22.7-4.32,31.29-12.97,8.6-8.65,12.89-19.05,12.89-31.21s-4.3-22.56-12.89-31.21Z"/>
      <path class="cls-1" d="M464.39,33.02c-12.27,0-22.7,4.32-31.29,12.97-8.59,8.65-12.89,19.05-12.89,31.21v44.19h22.01v-44.19c0-6.08,2.15-11.27,6.45-15.57,4.3-4.3,9.54-6.45,15.72-6.45v66.2h22.01V0h-22.01v33.02Z"/>
    </g>
  </g>
</svg>