<?xml version="1.0" encoding="UTF-8"?>
<svg id="Layer_2" data-name="Layer 2" xmlns="http://www.w3.org/2000/svg" viewBox="0 0 79.49 59.11">
  <defs>
    <style>
      .cls-1 {
        fill: #fff;
        stroke-width: 0px;
      }
    </style>
  </defs>
  <g id="Layer_1-2" data-name="Layer 1">
    <g>
      <path class="cls-1" d="M19.36,59.11h0s-19.36,0-19.36,0v-19.36h0c10.69,0,19.36,8.67,19.36,19.36Z"/>
      <path class="cls-1" d="M79.49,39.95v19.13c-.19.01-.39.02-.59.03h-5.24c-4.71-.23-9.25-1.09-13.54-2.49-1.36-.44-2.7-.94-4.01-1.49-8.03-3.37-15.03-8.7-20.42-15.38-1.1-1.36-2.13-2.78-3.09-4.25-.33-.56-.67-1.11-1.03-1.65-3.08-4.61-7.28-8.4-12.22-10.97-3.48-1.82-7.33-3.04-11.41-3.52-1.27-.15-2.57-.23-3.88-.23s-2.61.08-3.88.23h-.2V.22C1.35.12,2.71.07,4.08.07,9.4.07,14.53.86,19.36,2.34c1.67.51,3.3,1.1,4.89,1.77,7.98,3.35,14.94,8.63,20.31,15.25,1.14,1.4,2.2,2.86,3.19,4.38.33.56.67,1.11,1.03,1.65,2.89,4.33,6.78,7.94,11.34,10.5,3.43,1.93,7.24,3.26,11.29,3.86,1.59.24,3.21.36,4.87.36,1.08,0,2.15-.05,3.2-.15Z"/>
      <path class="cls-1" d="M79.49,0v19.36h0C68.8,19.36,60.13,10.69,60.13,0h0s19.36,0,19.36,0Z"/>
    </g>
  </g>
</svg>