<?xml version="1.0" encoding="UTF-8"?>
<svg id="Layer_2" data-name="Layer 2" xmlns="http://www.w3.org/2000/svg" viewBox="0 0 147.68 148.53">
  <defs>
    <style>
      .cls-1 {
        fill: #fff;
        stroke-width: 0px;
      }
    </style>
  </defs>
  <g id="Layer_1-2" data-name="Layer 1">
    <g>
      <path class="cls-1" d="M61.97,1.71c6.88.07,12.34,1.86,16.76,6.35.66.67,1.49,1.2,2.32,1.66,2.38,1.33,2.55,2.29.67,4.32-.54.58-1.12,1.12-1.67,1.68-10.17,10.16-20.35,20.31-30.52,30.46-1.59,1.59-3.26,3.1-4.78,4.75-1.97,2.14-1.94,3.52.08,5.62,1.85,1.92,3.82,3.72,5.71,5.6,7.8,7.75,15.59,15.52,23.4,23.27,2.07,2.05,4.17,4.08,6.28,6.09,3.14,2.99,3.07,4.86-.32,7.5-7.02,5.48-14.95,7.54-23.7,6.01-5.09-.89-9.23-3.7-12.85-7.28-9.25-9.14-18.46-18.3-27.71-27.44-4.53-4.48-9.09-8.93-13.64-13.4-.24-.23-.48-.46-.7-.71-1.69-1.84-1.73-3.32.01-5.12,2-2.07,4.09-4.04,6.12-6.08,11.57-11.58,23.14-23.17,34.7-34.76,5.68-5.7,12.64-8.28,19.85-8.53Z"/>
      <path class="cls-1" d="M84.22,147.06c-4.37.28-8.3-1.16-11.94-3.37-2.02-1.23-3.92-2.68-5.75-4.18-1.98-1.62-2.02-3.09-.28-5,.84-.92,1.78-1.76,2.66-2.64,7.28-7.28,14.54-14.57,21.84-21.82,3.61-3.58,7.27-7.1,10.94-10.62,3.42-3.27,3.48-4.87.14-8.17-9.74-9.65-19.48-19.28-29.23-28.92-1.87-1.84-3.76-3.66-5.65-5.48-2.5-2.4-2.48-3.99.09-6.36,9.97-9.17,26.47-9.2,36.39.02,4.3,4,8.53,8.08,12.71,12.2,9.99,9.87,19.93,19.78,29.89,29.68,2.19,2.17,2.21,3.53.02,5.71-13.94,13.87-27.86,27.76-41.86,41.58-5.05,4.99-11.38,7.04-18.35,7.37-.54.03-1.08,0-1.62,0Z"/>
      <path class="cls-1" d="M103.44.02c5.57.17,10.52.91,14.79,3.99,1.34.97,2.6,2.08,3.77,3.26,7.64,7.73,15.24,15.49,22.85,23.25,2.16,2.2,2.24,3.7.37,6.12-6.69,8.62-17.83,11.51-27.25,7.06-3.26-1.54-5.84-3.94-8.36-6.44-7.58-7.49-15.17-14.97-22.76-22.46-2.02-1.99-2.09-3.26-.11-5.31,3.11-3.2,6.42-6.18,10.53-8.1,2.11-.98,4.32-1.49,6.19-1.38Z"/>
      <path class="cls-1" d="M41.73,148.52c-6.33.08-11.1-2.42-15.16-6.41-8.24-8.08-16.43-16.2-24.64-24.31-2.14-2.12-2.2-3.41-.01-5.46,1.97-1.85,3.96-3.72,6.19-5.22,7.92-5.32,16-5.31,23.96-.1,2.32,1.52,4.44,3.38,6.44,5.3,7.23,6.96,14.36,14.03,21.53,21.05,2.83,2.77,2.81,4.37-.02,7.08-4.19,4-8.91,6.96-14.78,7.74-1.32.18-2.65.26-3.51.34Z"/>
    </g>
  </g>
</svg>